# xmcd
#
# Track frame offsets:
# 150
# 14951
# 27256
# 41466
# 53944
# 67499
# 81869
# 93073
# 104634
# 114171
# 125753
# 137604
#
# Disc length: 2081 seconds
#
# Revision: 0
# Processed by: cddbd v1.5.1PL0 Copyright (c) Steve Scherf et al.
# Submitted via: Audion 3.0.2 (http://www.panic.com/audion/)
#
DISCID=aa081f0c
DTITLE=Glenn Campbell - Glenn Campbell
DYEAR=1900
DGENRE=
TTITLE0=Rhinestone Cowboy
TTITLE1=Galveston
TTITLE2=Wichita Lineman
TTITLE3=By the time I get to Phoenix
TTITLE4=Gentle on my mind
TTITLE5=Country boy
TTITLE6=It's only make believe
TTITLE7=Dream baby
TTITLE8=Let it be me- with Bobbie Gentry
TTITLE9=True Grit
TTITLE10=All I have to do is dream/Bobbie G
TTITLE11=The last time I saw her
EXTD=
EXTT0=
EXTT1=
EXTT2=
EXTT3=
EXTT4=
EXTT5=
EXTT6=
EXTT7=
EXTT8=
EXTT9=
EXTT10=
EXTT11=
PLAYORDER=
